<svg xmlns="http://www.w3.org/2000/svg" id="Layer_1" width="164.48mm" height="57mm" viewBox="0 0 466.25 161.58"><defs><style>      .cls-1 {        fill: #fff;      }      .cls-2 {        fill: #f5b6d3;      }    </style></defs><g><g><path class="cls-1" d="M0,0h13.11c11.95,0,16.71,4.82,16.71,12.67,0,5.69-3.1,9.79-8.21,11.45,6.48,1.73,9.58,6.12,9.58,11.88,0,8.71-5.9,14.4-19.37,14.4H0V0ZM12.75,42.7c6.77,0,9.72-2.66,9.72-7.49s-3.38-7.49-10.73-7.49v-6.05c6.12,0,9.36-2.81,9.36-7.42,0-4.1-1.87-6.55-8.35-6.55h-4.1v35h4.1Z"></path><path class="cls-1" d="M58.61,46.23c-2.16,3.1-5.98,4.9-10.66,4.9-6.84,0-11.95-3.96-11.95-11.16s5.4-11.09,12.53-11.09c3.96,0,7.42,1.15,9.65,3.53v-6.41c0-4.1-2.16-6.41-7.06-6.41-4.18,0-6.48,1.66-7.13,5.11h-7.13c.5-7.99,5.9-12.17,14.98-12.17,9.65,0,14.76,4.75,14.76,13.47v24.41h-7.42l-.58-4.18ZM50.91,44.5c4.32,0,7.27-1.94,7.27-5.11s-2.74-4.97-6.91-4.97-6.62,1.58-6.62,5.04,2.59,5.04,6.26,5.04Z"></path><path class="cls-1" d="M74.16,13.32h8.42v10.87c1.66-7.42,5.54-11.67,11.59-11.38v9.07c-5.83-.86-11.52,3.17-11.52,12.24h-.07v16.27h-8.42V13.32Z"></path><path class="cls-1" d="M98.71,0h8.42v21.82c2.09-5.69,6.84-9.36,13.47-9.36,9.43,0,15.99,7.42,15.99,19.3s-6.77,19.37-15.99,19.37c-6.62,0-11.38-3.67-13.47-9.43v8.71h-8.42V0ZM117.65,43.71c5.9,0,10.22-4.32,10.22-11.81s-4.18-12.03-10.22-12.03c-6.55,0-10.51,4.97-10.51,10.51v2.66c0,5.69,4.18,10.66,10.51,10.66Z"></path><path class="cls-1" d="M174.03,50.4h-8.42v-8.28c-1.8,5.4-5.69,9.15-12.1,9.15-7.2,0-11.23-4.9-11.23-12.46V13.32h8.42v22.47c0,5.11,2.23,7.99,6.48,7.99,5.11,0,8.42-4.18,8.42-9.94V13.32h8.42v37.08Z"></path><path class="cls-1" d="M196.49,51.27c-9.43,0-15.99-7.49-15.99-19.37s6.7-19.3,15.99-19.3c6.62,0,11.31,3.67,13.39,9.43V0h8.42v50.4h-8.42v-8.57c-2.09,5.76-6.77,9.43-13.39,9.43ZM199.44,43.78c6.48,0,10.44-4.97,10.44-10.51v-2.66c0-5.69-4.1-10.58-10.44-10.58-5.9,0-10.22,4.25-10.22,11.81s4.18,11.95,10.22,11.95Z"></path><path class="cls-1" d="M247.03,46.23c-2.16,3.1-5.98,4.9-10.66,4.9-6.84,0-11.95-3.96-11.95-11.16s5.4-11.09,12.53-11.09c3.96,0,7.42,1.15,9.65,3.53v-6.41c0-4.1-2.16-6.41-7.06-6.41-4.18,0-6.48,1.66-7.13,5.11h-7.13c.5-7.99,5.91-12.17,14.98-12.17,9.65,0,14.76,4.75,14.76,13.47v24.41h-7.42l-.58-4.18ZM239.33,44.5c4.32,0,7.27-1.94,7.27-5.11s-2.74-4.97-6.91-4.97-6.62,1.58-6.62,5.04,2.59,5.04,6.26,5.04Z"></path></g><g><path class="cls-2" d="M219.22,48.73c7.49,0,14.47,1.15,21.39,2.45,12.17-10.44,23.55-26.28,36.51-39.17,3.82-3.82,11.3-10.15,17.71-10.15,2.52,0,5.54,1.08,8.5,4.82,4.32,3.31,4.39,5.83,4.39,7.42,0,5.54-5.98,10.08-9.29,14.04-1.51,1.8-3.89,6.91-4.82,6.91-1.44,0-4.1-6.41-4.1-11.09,0-4.32,10.37-10.94,10.37-14.98,0-.58-.43-.79-.94-.79-.65,0-1.51.36-1.94.65-14.33,9.58-24.48,24.91-36.29,37.8-2.38,2.59-4.75,4.82-7.06,6.84,4.83.72,9.79,1.22,15.12,1.22,7.13,0,13.39-.5,18.72-2.66,2.95-1.15,3.67-2.02,4.18-2.02.22,0,.29.07.29.22,0,.79-1.73,3.02-5.18,5.98-3.89,3.31-8.86,7.34-18.15,7.34-9.79,0-17.86-1.37-25.49-2.74-11.23,6.48-20.81,7.42-25.49,7.42-9.5,0-13.1-3.96-13.1-12.6,0-6.7,9.36-6.91,14.69-6.91ZM229.73,58.74c-3.46-.43-6.98-.72-10.66-.72-1.8,0-8.57.07-8.57,2.81,0,1.51,1.94,1.66,4.82,1.66,5.04,0,9.79-1.44,14.4-3.74Z"></path><path class="cls-2" d="M297.7,51.04c-1.37,2.09-2.16,3.89-2.16,5.18,0,1.15.58,2.66,2.81,2.66,1.3,0,2.88-.43,3.74-.72,13.18-4.82,20.09-11.23,20.74-11.23.58,0,.65.43.65.72,0,.79-2.88,4.1-5.83,6.77-5.26,4.82-12.38,9.86-19.44,9.86-3.17,0-10.01-7.42-10.01-10.3,0-6.84,5.4-12.67,11.02-17.71,5.76-5.18,10.15-7.49,12.89-7.49,1.51,0,3.53,1.51,5.33,3.53,2.59,2.38,2.81,3.6,2.81,4.54,0,6.91-11.88,16.71-17.28,16.71-1.51,0-3.67-.86-5.26-2.52ZM299.79,48.3c.58.86,1.37.94,1.73.94,4.1,0,13.61-10.15,13.61-12.39,0-.58-.36-.79-.86-.79s-1.15.29-1.51.5c-4.82,3.31-9.65,7.71-12.96,11.74Z"></path><path class="cls-2" d="M315.26,56.44c0-6.26,17.79-22.75,19.66-24.12.58-.43.86-.43,1.15-.43.58,0,5.69,4.32,5.69,5.54,0,.22-.07.65-.5,1.08-15.34,14.83-18.58,18.29-18.58,19.51,0,.22.07.43.43.43,1.66,0,5.69-2.16,11.52-6.41,1.58-1.15,4.1-3.53,4.9-3.53.72,0,1.44,1.73,1.44,2.09,0,.5-.43.94-.58,1.15-2.23,3.1-14.55,11.88-18.43,11.88-4.1,0-6.7-3.6-6.7-7.2ZM343.2,25.98c0-4.32,4.61-6.19,5.98-6.19,1.22,0,4.03,1.94,4.03,4.82,0,1.73-3.17,6.34-5.9,6.34-1.37,0-4.1-2.38-4.1-4.97Z"></path><path class="cls-2" d="M340.46,46.86c10.15-7.2,17.07-18,18.43-18,2.16,0,5.04,2.66,6.62,3.82.22.14.36.43.36.65,0,.14-.07.36-.22.5-1.8,1.8-4.25,7.56-4.68,10.58-.5,3.74-1.15,8.21-2.67,11.23-1.3,2.59-6.19,7.42-12.31,7.42-5.04,0-11.23-8.5-11.23-12.17,0-1.87,2.23-5.11,4.39-5.11.58,0,1.01.43,1.3,1.08ZM341.18,51.4c.79,3.02,2.45,5.76,4.39,5.76s4.03-3.53,5.47-7.34c.86-2.3,2.3-6.98,2.3-8.06,0-.22,0-.36-.14-.36s-.43.22-.86.65c-3.17,3.17-8.64,7.63-11.16,9.36Z"></path><path class="cls-2" d="M380.79,56.36l-4.61,3.46c-1.87,1.44-4.46,2.88-6.91,2.88-2.66,0-3.74-1.51-4.97-3.82-.86-1.66-1.73-3.46-1.73-4.75,0-3.82,4.1-8.57,6.7-11.31,4.39-4.61,9.36-8.57,14.4-12.38.14-.14.58-.36,1.01-.36,1.58,0,5.26,4.82,5.26,5.54,0,.22-.07.43-.29.65-4.32,3.74-17.57,14.11-17.57,18.15,0,.43.22,1.15.86,1.15,1.3,0,4.46-2.59,5.54-3.53,8.86-7.7,14.33-13.46,21.89-21.03.29-.29.72-.36,1.15-.36,3.02,0,6.34,3.67,6.34,4.54,0,.29,0,.43-.43.86-13.18,13.39-19.8,18.36-19.8,21.53,0,.58.14.79.5.79,2.16,0,11.16-6.34,15.12-10.08.5-.43.72-.58,1.15-.58.5,0,1.51,1.15,1.51,2.16s-1.51,2.52-2.38,3.31c-4.9,4.39-7.13,6.26-13.83,9.79-.79.36-1.66.58-2.52.58-2.74,0-6.34-3.74-6.41-7.2Z"></path><path class="cls-2" d="M397.99,56.51c0-3.24,3.02-6.34,5.26-8.64,5.18-5.47,9.65-10.44,15.84-16.78.36-.36.72-.5,1.08-.5,1.58,0,3.24,2.66,3.24,3.96,0,.86-.72,1.66-1.44,2.59-1.51,1.87-3.02,3.53-3.02,3.89,4.32-3.24,12.1-8.78,14.98-8.78,1.8,0,2.81,1.66,2.81,3.1,0,4.03-6.05,8.14-6.7,8.14-1.3,0-1.94-2.88-3.6-2.88-.29,0-.58.07-1.01.29-4.25,2.23-12.1,9.14-20.45,18.15-.65.72-1.87,3.24-3.31,3.24-.94,0-3.67-2.95-3.67-5.76Z"></path><path class="cls-2" d="M440.47,51.04c-1.37,2.09-2.16,3.89-2.16,5.18,0,1.15.58,2.66,2.81,2.66,1.3,0,2.88-.43,3.74-.72,13.18-4.82,20.09-11.23,20.74-11.23.58,0,.65.43.65.72,0,.79-2.88,4.1-5.83,6.77-5.26,4.82-12.38,9.86-19.44,9.86-3.17,0-10.01-7.42-10.01-10.3,0-6.84,5.4-12.67,11.02-17.71,5.76-5.18,10.15-7.49,12.89-7.49,1.51,0,3.53,1.51,5.33,3.53,2.59,2.38,2.81,3.6,2.81,4.54,0,6.91-11.88,16.71-17.28,16.71-1.51,0-3.67-.86-5.26-2.52ZM442.56,48.3c.58.86,1.37.94,1.73.94,4.1,0,13.61-10.15,13.61-12.39,0-.58-.36-.79-.86-.79s-1.15.29-1.51.5c-4.82,3.31-9.65,7.71-12.96,11.74Z"></path></g><g><path class="cls-1" d="M261.25,93.2v-.5c0-.61.14-1.87.54-1.87.18,0,.18.58.4,1.37,4.68-5.11,11.34-10.87,12.49-11.84.54-.47,1.04-.83,1.55-1.08-4.1.4-7.59,1.4-11.77,2.77-3.38,1.12-3.42,2.05-3.82,2.05-.25,0-.54-1.22-.54-1.84,0-2.45,12.63-7.63,20.7-7.63,1.8,0,3.64.22,5.4.65,5.08,1.29,8.96,7.16,8.96,11.66,0,5.9-5.51,11.34-15.59,14.11-2.41.65-4.9,1.08-7.38,1.08-3.1,0-6.19-1.19-8.32-3.24l-.86,1.15c-1.69,2.3-2.27,3.82-2.95,3.82-1.01,0-2.41-3.46-2.41-5.36,0-1.8,2.3-3.74,3.17-4.79l.43-.5ZM279.94,79.09c1.01.43,1.94,1.12,1.94,1.33,0,.14-.07.29-.29.47-3.92,3.31-10.58,9.72-15.3,15.12,1.3.4,2.95.61,5.15.61,5.15,0,9.21-1.84,14.04-4.36,2.16-1.12,6.66-4.9,6.66-7.7,0-4.61-8.67-5.47-12.2-5.47Z"></path><path class="cls-1" d="M293.76,100.07c-.54-1.01-1.04-1.73-1.04-3.02,0-.29.04-.65.18-1.01,1.37-3.74,10.19-10.47,12.53-10.47,1.55,0,2.84,1.66,4.03,2.81,1.84.76,3.31,1.87,3.31,2.2,0,.11-.11.18-.14.22-3.28,2.27-7.99,7.2-7.99,8.31,0,.18.14.32.36.32.32,0,4.07-1.87,7.52-5.51.07-.07.14-.14.32-.14.47,0,.76.83.76,1.08,0,1.26-6.55,7.05-9.03,7.05-1.51,0-2.74-1.37-2.74-3.35-2.66,2.41-4.17,3.6-5.44,3.6-1.12,0-1.94-.83-2.63-2.09ZM296.43,99.82c.11,0,.22-.04.36-.11,2.66-1.3,10.15-9.18,10.33-9.54.04-.07.07-.18.07-.25,0-.25-.22-.47-.58-.47-.4,0-1.76.79-2.77,1.48-2.12,1.48-3.67,2.84-5.33,4.61-1.19,1.26-2.59,2.84-2.59,3.71,0,.29.32.58.5.58Z"></path><path class="cls-1" d="M315.33,98.7c3.56-2.09,6.77-5.04,14.83-11.66.18-.14.68-.47,1.08-.47.72,0,2.7,1.22,2.7,2.66,0,.43-1.84,1.91-3.49,3.56-6.51,6.51-12.17,13.14-17.42,20.73-.36.54-.97,1.8-1.29,1.8-.43,0-2.3-1.48-2.3-3.53,0-2.16,1.83-4.36,3.46-6.19,2.16-2.48,3.92-4.25,6.62-6.91.11-.11.18-.25.18-.32s-.04-.11-.07-.11c-.07,0-.18.07-.25.14-4.57,3.78-5.4,3.78-5.9,3.78-.76,0-1.37-.36-2.23-2.02-.32-.65-.68-1.8-.68-2.41,0-3.67,4.93-7.16,10.83-11.88.11-.07.25-.11.43-.11,1.58,0,3.31,2.09,3.31,2.63,0,.07-.04.18-.14.22-3.67,2.84-7.24,5.8-10.37,9.21-.14.18-.22.36-.22.5,0,.29.18.5.5.5.11,0,.25-.04.43-.14Z"></path><path class="cls-1" d="M358.2,98.77c-2.81,3.64-2.45,4.79-2.99,4.79-1.44,0-3.92-4.28-3.92-5.11,0-2.27,6.51-8.53,9.79-11.7,5.51-5.33,8.67-8.1,9.32-8.6.29-.22.58-.43.86-.61l-4.1-.14c-2.3,2.74-11.38,4-16.63,4-.5,0-1.04,0-1.55-.04-3.2-.11-3.28-6.44-3.28-7.2,0-1.15,1.19-1.73,2.12-1.73,4.1,0,9.29.14,16.41.14,16.77,0,26.49-1.44,27.21-1.44.47,0,.65.43,3.89,3.02.47.4,1.73,1.15,1.73,1.73,0,.43-1.51.76-2.45.86-6.51.76-10.62.97-14.72.97-1.12,0-2.3,0-3.53-.04.5.32.86.65.86.86,0,.36-1.73,1.84-4.17,4.21-2.88,2.81-10.15,9.9-14.87,16.02ZM362.92,77.21c-5.04-.25-9.61-.47-12.31-.47-1.15,0-2.59.04-2.59.79,0,.83,2.02.86,2.77.86,3.67,0,10.47-.11,12.13-1.19Z"></path><path class="cls-1" d="M376.2,85.82c1.12-.5,2.02-.61,2.66-.61,1.04,0,1.48.43,2.38,1.48.76.9,1.15,1.94,1.15,2.2,0,.22-.29.25-.65.25-.25,0-.5.04-.79.07,1.01.32,1.33,1.55,1.33,2.74,0,.68-.07,1.44-.32,2.09-1.26,3.13-6.16,7.67-9.93,7.67-.58,0-1.4-.11-1.84-.47-1.01-.83-3.71-3.56-3.71-5.87,0-3.82,5.69-7.67,9.72-9.54ZM379.04,89.67c-4.25,1.51-9.36,5.76-9.39,8.03,0,.5.54,1.01.97,1.01,1.22,0,4.14-1.98,4.86-2.52,1.51-1.15,2.74-2.63,2.74-3.13,0-.4-.32-.72-.32-1.44,0-.47.47-1.37,1.15-1.94Z"></path><path class="cls-1" d="M391.32,98.31l-2.3,1.73c-.94.72-2.23,1.44-3.46,1.44-1.33,0-1.87-.76-2.48-1.91-.43-.83-.86-1.73-.86-2.38,0-1.91,2.05-4.28,3.35-5.65,2.2-2.3,4.68-4.28,7.2-6.19.07-.07.29-.18.5-.18.79,0,2.63,2.41,2.63,2.77,0,.11-.04.22-.14.32-2.16,1.87-8.78,7.05-8.78,9.07,0,.22.11.58.43.58.65,0,2.23-1.3,2.77-1.76,4.43-3.85,7.16-6.73,10.94-10.51.14-.14.36-.18.58-.18,1.51,0,3.17,1.84,3.17,2.27,0,.14,0,.22-.22.43-6.59,6.7-9.9,9.18-9.9,10.76,0,.29.07.4.25.4,1.08,0,5.58-3.17,7.56-5.04.25-.22.36-.29.58-.29.25,0,.76.58.76,1.08s-.76,1.26-1.19,1.66c-2.45,2.2-3.56,3.13-6.91,4.89-.4.18-.83.29-1.26.29-1.37,0-3.17-1.87-3.2-3.6Z"></path><path class="cls-1" d="M399.93,98.38c0-1.62,1.51-3.17,2.63-4.32,2.59-2.74,4.82-5.22,7.92-8.39.18-.18.36-.25.54-.25.79,0,1.62,1.33,1.62,1.98,0,.43-.36.83-.72,1.3-.76.94-1.51,1.76-1.51,1.94,2.16-1.62,6.05-4.39,7.49-4.39.9,0,1.4.83,1.4,1.55,0,2.02-3.02,4.07-3.35,4.07-.65,0-.97-1.44-1.8-1.44-.14,0-.29.04-.5.14-2.12,1.12-6.05,4.57-10.22,9.07-.32.36-.94,1.62-1.66,1.62-.47,0-1.84-1.48-1.84-2.88Z"></path><path class="cls-1" d="M417.21,93.55c5.08-3.6,8.53-9,9.21-9,1.08,0,2.52,1.33,3.31,1.91.11.07.18.22.18.32,0,.07-.04.18-.11.25-.9.9-2.12,3.78-2.34,5.29-.25,1.87-.58,4.1-1.33,5.62-.65,1.3-3.09,3.71-6.15,3.71-2.52,0-5.62-4.25-5.62-6.08,0-.94,1.12-2.56,2.2-2.56.29,0,.5.22.65.54ZM417.57,95.82c.4,1.51,1.22,2.88,2.2,2.88s2.02-1.76,2.74-3.67c.43-1.15,1.15-3.49,1.15-4.03,0-.11,0-.18-.07-.18s-.22.11-.43.32c-1.58,1.58-4.32,3.82-5.58,4.68Z"></path></g></g><g><path class="cls-2" d="M46.39,138.22c.77-4.96,3.62-7.52,8.58-7.52,4.51,0,7.1,2.24,7.1,6.18,0,.51-.03,1.09-.13,1.66l-1.06,6.66c-.8,4.96-3.65,7.52-8.58,7.52-4.54,0-7.1-2.24-7.1-6.18,0-.51.03-1.09.13-1.66l1.06-6.66ZM49.18,144.68c-.06.48-.1.93-.1,1.34,0,2.27,1.12,3.36,3.39,3.36,2.69,0,4.19-1.57,4.7-4.74l.93-5.92c.1-.51.13-.96.13-1.41,0-2.21-1.15-3.3-3.42-3.3-2.69,0-4.19,1.57-4.7,4.74l-.93,5.92Z"></path><path class="cls-2" d="M73.5,142.31c.06-.38.1-.7.1-1.02,0-1.5-.74-2.24-2.21-2.24-1.76,0-2.75,1.06-3.1,3.26l-1.47,9.34c-.06.45-.32.67-.77.67h-2.02c-.51,0-.77-.29-.67-.8l1.5-9.63c.61-3.9,2.85-5.86,6.69-5.86,3.55,0,5.6,1.7,5.6,4.77,0,.42-.06.86-.13,1.31l-1.5,9.54c-.06.45-.32.67-.77.67h-2.02c-.51,0-.77-.29-.67-.8l1.44-9.22Z"></path><path class="cls-2" d="M92.54,140.97c0,.38-.03.83-.1,1.28l-.42,2.56c-.06.45-.32.67-.77.67h-8.06l-.1.64c-.06.38-.1.77-.1,1.09,0,1.76.93,2.5,2.85,2.5,1.09,0,2.02-.38,2.88-1.12.42-.32.77-.29,1.06.13l.8,1.28c.22.38.19.74-.16,1.02-1.41,1.12-3.07,1.7-4.83,1.7-3.94,0-6.14-1.73-6.14-5.06,0-.42.03-.86.13-1.41l.67-4.26c.64-3.94,2.85-5.95,6.69-5.95,3.58,0,5.6,1.79,5.6,4.93ZM83.64,142.41l-.06.45h5.44l.06-.48c.06-.38.1-.74.1-1.06,0-1.54-.77-2.27-2.3-2.27-1.86,0-2.85,1.09-3.23,3.36Z"></path><path class="cls-2" d="M111.45,131.08c4.54,0,6.98,1.98,6.98,5.76,0,.54-.06,1.15-.16,1.76l-1.06,6.5c-.8,4.93-3.49,7.23-8.74,7.23h-6.53c-.51,0-.77-.29-.67-.8l3.14-19.77c.06-.45.32-.67.77-.67h6.27ZM114.42,138.79c.06-.42.1-.83.1-1.18,0-2.18-1.15-3.2-3.58-3.2h-3.14l-2.34,14.59h3.14c2.85,0,4.42-1.41,4.9-4.42l.93-5.79Z"></path><path class="cls-2" d="M132.79,141.07c0,.42-.03.86-.1,1.31l-.7,4.38c-.61,3.9-2.88,5.95-6.94,5.95-3.52,0-5.44-1.66-5.44-4.61,0-3.42,2.14-5.31,6.43-5.31h3.1c.1-.58.13-.9.13-1.22,0-1.76-.93-2.53-2.75-2.53-1.02,0-2.05.42-2.91,1.02-.42.32-.77.26-1.02-.19l-.7-1.34c-.22-.42-.13-.77.29-1.06,1.57-1.02,3.04-1.44,4.83-1.44,3.68,0,5.79,1.76,5.79,5.02ZM128.57,146.35l.16-.96h-2.5c-1.98,0-3.1.86-3.1,2.46,0,1.22.8,1.86,2.18,1.86,1.89,0,2.91-1.09,3.26-3.36Z"></path><path class="cls-2" d="M148.25,136.43c.51,0,.77.29.67.8l-2.34,14.88c-.58,3.65-3.01,5.73-6.82,5.73-2.18,0-4.03-.61-5.25-1.7-.35-.29-.35-.67-.06-1.02l.99-1.31c.32-.38.67-.38,1.02-.06.93.77,2.02,1.09,3.23,1.09,1.95,0,3.1-1.02,3.42-2.98l.13-.83h-.06c-.83.77-1.92,1.12-3.26,1.12-3.07,0-4.74-1.66-4.74-4.64,0-.45.03-.96.13-1.47l1.41-8.93c.06-.45.32-.67.77-.67h2.02c.51,0,.77.29.67.8l-1.38,8.7c-.06.35-.1.67-.1.96,0,1.54.77,2.24,2.27,2.24,1.73,0,2.72-1.09,3.07-3.23l1.41-8.8c.06-.45.32-.67.77-.67h2.02Z"></path><path class="cls-2" d="M154.87,150.47c0,1.92-1.54,4.42-3.62,6.02-.26.22-.54.19-.77-.06l-.61-.67c-.26-.26-.22-.54.06-.77.83-.74,1.47-1.57,1.79-2.66-.74-.29-1.18-.93-1.18-1.79,0-1.38,1.02-2.21,2.3-2.21s2.02.83,2.02,2.14Z"></path><path class="cls-2" d="M178.97,139.91c.51,0,.77.29.67.8l-.29,1.86c-.06.45-.32.67-.77.67h-7.71l-.93,5.76h9.02c.51,0,.77.29.67.8l-.32,1.86c-.06.45-.32.67-.77.67h-12.13c-.51,0-.77-.29-.67-.8l3.14-19.77c.06-.45.32-.67.77-.67h12.13c.51,0,.77.29.67.8l-.29,1.86c-.06.45-.32.67-.77.67h-9.12l-.9,5.5h7.58Z"></path><path class="cls-2" d="M192.6,142.31c.06-.38.1-.7.1-1.02,0-1.5-.74-2.24-2.21-2.24-1.76,0-2.75,1.06-3.1,3.26l-1.47,9.34c-.06.45-.32.67-.77.67h-2.02c-.51,0-.77-.29-.67-.8l1.5-9.63c.61-3.9,2.85-5.86,6.69-5.86,3.55,0,5.6,1.7,5.6,4.77,0,.42-.06.86-.13,1.31l-1.5,9.54c-.06.45-.32.67-.77.67h-2.02c-.51,0-.77-.29-.67-.8l1.44-9.22Z"></path><path class="cls-2" d="M212.92,129.93c.51,0,.77.29.67.8l-2.53,16.03c-.61,3.9-2.91,5.95-6.82,5.95-3.65,0-5.73-1.79-5.73-4.9,0-.42.06-.86.13-1.31l.7-4.51c.64-3.94,2.78-5.95,6.34-5.95,1.5,0,2.59.48,3.26,1.41h.06l1.12-6.85c.06-.45.32-.67.77-.67h2.02ZM208.25,142.38c.06-.32.06-.64.06-.93,0-1.6-.74-2.4-2.27-2.4-1.89,0-2.94,1.09-3.3,3.36l-.61,3.97c-.06.35-.1.7-.1.99,0,1.57.77,2.34,2.34,2.34,1.86,0,2.88-1.09,3.23-3.36l.64-3.97Z"></path><path class="cls-2" d="M214.68,152.33c-.51,0-.77-.29-.67-.8l3.33-20.93c.06-.45.32-.67.77-.67h2.02c.51,0,.77.29.67.8l-3.33,20.93c-.06.45-.32.67-.77.67h-2.02Z"></path><path class="cls-2" d="M234.65,140.97c0,.38-.03.83-.1,1.28l-.42,2.56c-.06.45-.32.67-.77.67h-8.06l-.1.64c-.06.38-.1.77-.1,1.09,0,1.76.93,2.5,2.85,2.5,1.09,0,2.02-.38,2.88-1.12.42-.32.77-.29,1.06.13l.8,1.28c.22.38.19.74-.16,1.02-1.41,1.12-3.07,1.7-4.83,1.7-3.94,0-6.14-1.73-6.14-5.06,0-.42.03-.86.13-1.41l.67-4.26c.64-3.94,2.85-5.95,6.69-5.95,3.58,0,5.6,1.79,5.6,4.93ZM225.75,142.41l-.06.45h5.44l.06-.48c.06-.38.1-.74.1-1.06,0-1.54-.77-2.27-2.3-2.27-1.86,0-2.85,1.09-3.23,3.36Z"></path><path class="cls-2" d="M235.48,150.99c-.32-.29-.32-.67-.03-1.02l1.09-1.31c.32-.38.64-.38,1.02-.06.86.74,2.11,1.15,3.46,1.15,1.92,0,2.94-.74,2.94-2.11,0-.93-.64-1.41-2.72-1.79-3.23-.61-4.45-1.76-4.45-4.19,0-3.42,2.56-5.6,6.59-5.6,1.82,0,3.42.45,4.54,1.22.38.29.38.67.1,1.06l-.99,1.28c-.29.38-.61.42-1.02.13-.74-.45-1.63-.7-2.62-.7-1.98,0-3.07.74-3.07,2.08,0,.86.64,1.28,2.59,1.63,3.33.61,4.58,1.79,4.58,4.35,0,3.46-2.5,5.63-6.43,5.63-2.46,0-4.19-.54-5.57-1.73Z"></path><path class="cls-2" d="M248.76,150.99c-.32-.29-.32-.67-.03-1.02l1.09-1.31c.32-.38.64-.38,1.02-.06.86.74,2.11,1.15,3.46,1.15,1.92,0,2.94-.74,2.94-2.11,0-.93-.64-1.41-2.72-1.79-3.23-.61-4.45-1.76-4.45-4.19,0-3.42,2.56-5.6,6.59-5.6,1.82,0,3.42.45,4.54,1.22.38.29.38.67.1,1.06l-.99,1.28c-.29.38-.61.42-1.02.13-.74-.45-1.63-.7-2.62-.7-1.98,0-3.07.74-3.07,2.08,0,.86.64,1.28,2.59,1.63,3.33.61,4.58,1.79,4.58,4.35,0,3.46-2.5,5.63-6.43,5.63-2.46,0-4.19-.54-5.57-1.73Z"></path><path class="cls-2" d="M294.16,131.08c.51,0,.77.29.67.8l-3.14,19.77c-.06.45-.32.67-.77.67h-2.34c-.51,0-.77-.29-.67-.8l2.4-15.17h-.06l-7.71,15.42c-.19.38-.45.54-.86.54h-1.92c-.45,0-.7-.22-.8-.67l-2.82-15.33h-.06l-2.43,15.33c-.06.45-.32.67-.77.67h-2.27c-.51,0-.77-.29-.67-.8l3.14-19.77c.06-.45.32-.67.77-.67h4.22c.45,0,.7.22.8.67l2.66,14.56h.06l7.33-14.69c.19-.38.45-.54.86-.54h4.38Z"></path><path class="cls-2" d="M309.27,140.97c0,.38-.03.83-.1,1.28l-.42,2.56c-.06.45-.32.67-.77.67h-8.06l-.1.64c-.06.38-.1.77-.1,1.09,0,1.76.93,2.5,2.85,2.5,1.09,0,2.02-.38,2.88-1.12.42-.32.77-.29,1.06.13l.8,1.28c.22.38.19.74-.16,1.02-1.41,1.12-3.07,1.7-4.83,1.7-3.94,0-6.14-1.73-6.14-5.06,0-.42.03-.86.13-1.41l.67-4.26c.64-3.94,2.85-5.95,6.69-5.95,3.58,0,5.6,1.79,5.6,4.93ZM300.37,142.41l-.06.45h5.44l.06-.48c.06-.38.1-.74.1-1.06,0-1.54-.77-2.27-2.3-2.27-1.86,0-2.85,1.09-3.23,3.36Z"></path><path class="cls-2" d="M332.56,140.78c0,.42-.03.9-.13,1.38l-1.5,9.5c-.06.45-.32.67-.77.67h-2.02c-.51,0-.77-.29-.67-.8l1.47-9.31c.06-.35.1-.7.1-.99,0-1.47-.7-2.18-2.14-2.18-1.66,0-2.56,1.02-2.91,3.17l-1.5,9.44c-.06.45-.32.67-.77.67h-2.02c-.51,0-.77-.29-.67-.8l1.47-9.31c.06-.35.1-.7.1-.99,0-1.47-.7-2.18-2.14-2.18-1.66,0-2.56,1.02-2.91,3.17l-1.5,9.44c-.06.45-.32.67-.77.67h-2.02c-.51,0-.77-.29-.67-.8l1.5-9.63c.61-3.87,2.72-5.86,6.3-5.86,2.02,0,3.49.67,4.32,1.86h.06c1.02-1.22,2.53-1.86,4.51-1.86,3.36,0,5.28,1.73,5.28,4.74Z"></path><path class="cls-2" d="M348.18,140.97c0,.38-.03.83-.1,1.28l-.7,4.51c-.64,3.94-2.91,5.95-6.82,5.95-3.65,0-5.73-1.76-5.73-4.9,0-.42.03-.77.13-1.31l.7-4.51c.64-3.94,2.88-5.95,6.82-5.95,3.65,0,5.7,1.79,5.7,4.93ZM343.96,146.35l.61-3.97c.06-.35.1-.7.1-.99,0-1.57-.77-2.34-2.34-2.34-1.86,0-2.88,1.09-3.23,3.36l-.61,3.97c-.06.35-.1.7-.1.99,0,1.57.77,2.34,2.3,2.34,1.86,0,2.91-1.09,3.26-3.36Z"></path><path class="cls-2" d="M351.32,141.93c.64-3.94,2.62-5.89,6.18-5.89,1.47,0,2.75.35,3.68.96.38.26.45.61.19,1.02l-.83,1.34c-.29.42-.61.45-1.02.19-.58-.35-1.15-.51-1.82-.51-1.63,0-2.56.96-2.88,2.91l-1.54,9.7c-.06.45-.32.67-.77.67h-2.02c-.51,0-.77-.29-.67-.8l1.5-9.6Z"></path><path class="cls-2" d="M362.36,152.33c-.51,0-.77-.29-.67-.8l2.3-14.43c.06-.45.32-.67.77-.67h2.02c.51,0,.77.29.67.8l-2.3,14.43c-.06.45-.32.67-.77.67h-2.02ZM364.53,131.88c0-1.31.93-2.24,2.18-2.24s1.95.77,1.95,1.92c0,1.31-.99,2.21-2.21,2.21-1.15,0-1.92-.77-1.92-1.89Z"></path><path class="cls-2" d="M382.32,140.97c0,.38-.03.83-.1,1.28l-.42,2.56c-.06.45-.32.67-.77.67h-8.06l-.1.64c-.06.38-.1.77-.1,1.09,0,1.76.93,2.5,2.85,2.5,1.09,0,2.02-.38,2.88-1.12.42-.32.77-.29,1.06.13l.8,1.28c.22.38.19.74-.16,1.02-1.41,1.12-3.07,1.7-4.83,1.7-3.94,0-6.14-1.73-6.14-5.06,0-.42.03-.86.13-1.41l.67-4.26c.64-3.94,2.85-5.95,6.69-5.95,3.58,0,5.6,1.79,5.6,4.93ZM373.43,142.41l-.06.45h5.44l.06-.48c.06-.38.1-.74.1-1.06,0-1.54-.77-2.27-2.3-2.27-1.86,0-2.85,1.09-3.23,3.36Z"></path><path class="cls-2" d="M383.16,150.99c-.32-.29-.32-.67-.03-1.02l1.09-1.31c.32-.38.64-.38,1.02-.06.86.74,2.11,1.15,3.46,1.15,1.92,0,2.94-.74,2.94-2.11,0-.93-.64-1.41-2.72-1.79-3.23-.61-4.45-1.76-4.45-4.19,0-3.42,2.56-5.6,6.59-5.6,1.82,0,3.42.45,4.54,1.22.38.29.38.67.1,1.06l-.99,1.28c-.29.38-.61.42-1.02.13-.74-.45-1.63-.7-2.62-.7-1.98,0-3.07.74-3.07,2.08,0,.86.64,1.28,2.59,1.63,3.33.61,4.58,1.79,4.58,4.35,0,3.46-2.5,5.63-6.43,5.63-2.46,0-4.19-.54-5.57-1.73Z"></path><path class="cls-2" d="M398.29,150.67c0-1.34,1.06-2.34,2.34-2.34s2.05.86,2.05,2.05c0,1.34-1.06,2.34-2.34,2.34s-2.05-.86-2.05-2.05ZM407.47,150.67c0-1.34,1.06-2.34,2.34-2.34s2.05.86,2.05,2.05c0,1.34-1.06,2.34-2.34,2.34s-2.05-.86-2.05-2.05ZM416.66,150.67c0-1.34,1.06-2.34,2.34-2.34s2.05.86,2.05,2.05c0,1.34-1.06,2.34-2.34,2.34s-2.05-.86-2.05-2.05Z"></path></g></svg>